<?xml version="1.0" encoding="UTF-8"?>
<!DOCTYPE svg PUBLIC "-//W3C//DTD SVG 1.1//EN" "http://www.w3.org/Graphics/SVG/1.1/DTD/svg11.dtd">
<svg xmlns="http://www.w3.org/2000/svg" version="1.1" width="1000px" height="1000px" style="shape-rendering:geometricPrecision; text-rendering:geometricPrecision; image-rendering:optimizeQuality; fill-rule:evenodd; clip-rule:evenodd" xmlns:xlink="http://www.w3.org/1999/xlink">
<g><path style="opacity:0.008" fill="#000000" d="M 179.5,193.5 C 180.833,194.167 180.833,194.167 179.5,193.5 Z"/></g>
<g><path style="opacity:0.008" fill="#000000" d="M 181.5,195.5 C 182.833,196.167 182.833,196.167 181.5,195.5 Z"/></g>
<g><path style="opacity:0.008" fill="#000000" d="M 183.5,197.5 C 184.833,198.167 184.833,198.167 183.5,197.5 Z"/></g>
<g><path style="opacity:0.008" fill="#000000" d="M 171.5,199.5 C 172.833,200.167 172.833,200.167 171.5,199.5 Z"/></g>
<g><path style="opacity:0.008" fill="#000000" d="M 143.5,201.5 C 144.833,202.167 144.833,202.167 143.5,201.5 Z"/></g>
<g><path style="opacity:0.008" fill="#000000" d="M 173.5,201.5 C 174.833,202.167 174.833,202.167 173.5,201.5 Z"/></g>
<g><path style="opacity:0.612" fill="#6b6e78" d="M 166.5,205.5 C 166.44,206.043 166.107,206.376 165.5,206.5C 164.3,205.469 162.966,204.635 161.5,204C 157.514,203.501 153.514,203.334 149.5,203.5C 149.918,202.778 150.584,202.278 151.5,202C 157.225,200.676 162.225,201.843 166.5,205.5 Z"/></g>
<g><path style="opacity:0.008" fill="#000000" d="M 141.5,203.5 C 142.833,204.167 142.833,204.167 141.5,203.5 Z"/></g>
<g><path style="opacity:1" fill="#2e2f42" d="M 203.5,251.5 C 203.778,260.553 203.444,269.553 202.5,278.5C 200.973,287.217 196.64,294.217 189.5,299.5C 189.586,298.504 189.252,297.671 188.5,297C 192.986,284.517 190.653,273.517 181.5,264C 173.527,265.966 165.36,267.133 157,267.5C 150.462,267.614 144.128,266.614 138,264.5C 133.042,267.813 130.042,272.48 129,278.5C 127.915,286.75 128.748,294.75 131.5,302.5C 121.659,295.66 115.659,286.327 113.5,274.5C 113.5,268.167 113.5,261.833 113.5,255.5C 115.54,241.481 122.873,231.481 135.5,225.5C 134.644,214.527 139.31,207.194 149.5,203.5C 153.514,203.334 157.514,203.501 161.5,204C 162.966,204.635 164.3,205.469 165.5,206.5C 166.107,206.376 166.44,206.043 166.5,205.5C 168.417,206.406 170.083,207.739 171.5,209.5C 173.376,213.476 175.043,217.476 176.5,221.5C 180.712,214.014 180.379,206.681 175.5,199.5C 172.68,196.757 169.347,195.09 165.5,194.5C 165.5,193.5 165.5,192.5 165.5,191.5C 173.683,191.678 179.849,195.345 184,202.5C 184.5,205.5 185,208.5 185.5,211.5C 184.694,216.24 183.694,220.907 182.5,225.5C 193.491,230.836 200.491,239.502 203.5,251.5 Z"/></g>
<g><path style="opacity:0.008" fill="#000000" d="M 169.5,203.5 C 170.833,204.167 170.833,204.167 169.5,203.5 Z"/></g>
<g><path style="opacity:0.008" fill="#000000" d="M 171.5,205.5 C 172.833,206.167 172.833,206.167 171.5,205.5 Z"/></g>
<g><path style="opacity:0.008" fill="#000000" d="M 135.5,209.5 C 136.833,210.167 136.833,210.167 135.5,209.5 Z"/></g>
<g><path style="opacity:0.008" fill="#000000" d="M 175.5,211.5 C 176.833,212.167 176.833,212.167 175.5,211.5 Z"/></g>
<g><path style="opacity:0.008" fill="#000000" d="M 127.5,225.5 C 128.833,226.167 128.833,226.167 127.5,225.5 Z"/></g>
<g><path style="opacity:0.008" fill="#000000" d="M 189.5,225.5 C 190.833,226.167 190.833,226.167 189.5,225.5 Z"/></g>
<g><path style="opacity:0.008" fill="#000000" d="M 125.5,227.5 C 126.833,228.167 126.833,228.167 125.5,227.5 Z"/></g>
<g><path style="opacity:0.008" fill="#000000" d="M 191.5,227.5 C 192.833,228.167 192.833,228.167 191.5,227.5 Z"/></g>
<g><path style="opacity:0.008" fill="#000000" d="M 193.5,229.5 C 194.833,230.167 194.833,230.167 193.5,229.5 Z"/></g>
<g><path style="opacity:0.008" fill="#000000" d="M 195.5,231.5 C 196.833,232.167 196.833,232.167 195.5,231.5 Z"/></g>
<g><path style="opacity:0.97" fill="#d9d9d9" d="M 764.5,370.5 C 763.5,370.833 762.833,371.5 762.5,372.5C 610.333,372.523 457.999,372.689 305.5,373C 304.069,372.535 302.903,371.701 302,370.5C 301.833,363.333 301.667,356.167 301.5,349C 302.351,309.838 302.684,270.671 302.5,231.5C 304.342,231.277 306.175,230.943 308,230.5C 318.144,231.273 328.311,231.773 338.5,232C 443.002,232.221 547.502,232.721 652,233.5C 667.867,233.454 683.7,232.787 699.5,231.5C 721.133,231.653 742.8,231.82 764.5,232C 765,232.5 765.5,233 766,233.5C 766.167,236.5 766.333,239.5 766.5,242.5C 766.503,284.819 766.336,327.152 766,369.5C 765.617,370.056 765.117,370.389 764.5,370.5 Z"/></g>
<g><path style="opacity:0.008" fill="#000000" d="M 119.5,233.5 C 120.833,234.167 120.833,234.167 119.5,233.5 Z"/></g>
<g><path style="opacity:1" fill="#fdfcfc" d="M 311.5,241.5 C 459.5,241.5 607.5,241.5 755.5,241.5C 755.5,282.167 755.5,322.833 755.5,363.5C 607.833,363.667 460.166,363.5 312.5,363C 311.503,322.572 311.17,282.072 311.5,241.5 Z"/></g>
<g><path style="opacity:0.588" fill="#6a686e" d="M 113.5,255.5 C 113.5,261.833 113.5,268.167 113.5,274.5C 111.994,271.644 111.328,268.477 111.5,265C 111.328,261.523 111.994,258.356 113.5,255.5 Z"/></g>
<g><path style="opacity:1" fill="#fab5b5" d="M 189.5,299.5 C 189.167,300.167 188.833,300.833 188.5,301.5C 185.781,303.219 183.781,305.553 182.5,308.5C 180.339,312.664 177.006,315.33 172.5,316.5C 172.01,320.487 172.676,324.154 174.5,327.5C 173.504,327.586 172.671,327.252 172,326.5C 171.348,328.723 169.848,329.89 167.5,330C 157.112,330.614 146.779,330.114 136.5,328.5C 137.919,327.549 139.585,327.216 141.5,327.5C 141.36,323.836 142.027,320.336 143.5,317C 139.307,312.309 135.307,307.475 131.5,302.5C 128.748,294.75 127.915,286.75 129,278.5C 130.042,272.48 133.042,267.813 138,264.5C 144.128,266.614 150.462,267.614 157,267.5C 165.36,267.133 173.527,265.966 181.5,264C 190.653,273.517 192.986,284.517 188.5,297C 189.252,297.671 189.586,298.504 189.5,299.5 Z"/></g>
<g><path style="opacity:0.699" fill="#060608" d="M 203.5,251.5 C 204.282,255.674 204.949,260.008 205.5,264.5C 204.79,268.804 204.29,273.137 204,277.5C 203.617,278.056 203.117,278.389 202.5,278.5C 203.444,269.553 203.778,260.553 203.5,251.5 Z"/></g>
<g><path style="opacity:1" fill="#c9c4cc" d="M 357.5,260.5 C 380.908,256.805 397.742,265.472 408,286.5C 413.963,309.727 406.463,326.893 385.5,338C 360.648,345.282 342.481,337.449 331,314.5C 325.164,289.174 333.997,271.174 357.5,260.5 Z"/></g>
<g><path style="opacity:1" fill="#fbf9fa" d="M 387.5,324.5 C 389.167,323.5 390.5,322.167 391.5,320.5C 393.812,318.854 395.812,316.854 397.5,314.5C 390.197,313.503 382.863,313.169 375.5,313.5C 366.651,313.174 357.984,313.507 349.5,314.5C 346.167,317.167 343.167,320.167 340.5,323.5C 339.883,323.611 339.383,323.944 339,324.5C 329.807,309.556 329.141,294.223 337,278.5C 352.935,260.732 371.435,257.565 392.5,269C 408.091,282.646 411.924,299.146 404,318.5C 388.927,340.025 369.76,344.525 346.5,332C 344.5,330 342.5,328 340.5,326C 356.339,325.831 372.005,325.331 387.5,324.5 Z"/></g>
<g><path style="opacity:1" fill="#25c6c5" d="M 358.5,279.5 C 363.167,279.5 367.833,279.5 372.5,279.5C 373.263,280.268 374.263,280.768 375.5,281C 375.167,281.333 374.833,281.667 374.5,282C 376.631,282.543 378.631,283.376 380.5,284.5C 379.141,286.306 379.475,287.806 381.5,289C 383.81,289.497 386.143,289.663 388.5,289.5C 385.713,290.477 382.713,290.81 379.5,290.5C 377.052,289.527 374.385,289.194 371.5,289.5C 369.622,288.792 367.955,287.626 366.5,286C 367.711,285.107 367.711,284.274 366.5,283.5C 365.205,282.902 363.872,282.402 362.5,282C 362.833,281.667 363.167,281.333 363.5,281C 361.618,280.802 359.952,280.302 358.5,279.5 Z"/></g>
<g><path style="opacity:1" fill="#54a8d2" d="M 349.5,280.5 C 350.833,280.5 352.167,280.5 353.5,280.5C 354.269,283.171 354.602,285.671 354.5,288C 360.123,289.029 365.79,289.529 371.5,289.5C 374.385,289.194 377.052,289.527 379.5,290.5C 366.483,290.832 353.483,290.499 340.5,289.5C 343.188,286.146 346.188,283.146 349.5,280.5 Z"/></g>
<g><path style="opacity:1" fill="#35b0c8" d="M 349.5,280.5 C 352.287,279.523 355.287,279.19 358.5,279.5C 359.952,280.302 361.618,280.802 363.5,281C 363.167,281.333 362.833,281.667 362.5,282C 363.872,282.402 365.205,282.902 366.5,283.5C 367.711,284.274 367.711,285.107 366.5,286C 367.955,287.626 369.622,288.792 371.5,289.5C 365.79,289.529 360.123,289.029 354.5,288C 354.602,285.671 354.269,283.171 353.5,280.5C 352.167,280.5 350.833,280.5 349.5,280.5 Z"/></g>
<g><path style="opacity:1" fill="#13d9c3" d="M 372.5,279.5 C 380.5,279.5 388.5,279.5 396.5,279.5C 395.005,283.673 392.338,287.006 388.5,289.5C 386.143,289.663 383.81,289.497 381.5,289C 379.475,287.806 379.141,286.306 380.5,284.5C 378.631,283.376 376.631,282.543 374.5,282C 374.833,281.667 375.167,281.333 375.5,281C 374.263,280.768 373.263,280.268 372.5,279.5 Z"/></g>
<g><path style="opacity:0.008" fill="#000000" d="M 199.5,291.5 C 200.833,292.167 200.833,292.167 199.5,291.5 Z"/></g>
<g><path style="opacity:0.008" fill="#000000" d="M 121.5,297.5 C 122.833,298.167 122.833,298.167 121.5,297.5 Z"/></g>
<g><path style="opacity:1" fill="#5fadd6" d="M 341.5,296.5 C 356.661,295.339 371.994,295.172 387.5,296C 390.96,299.296 394.294,302.796 397.5,306.5C 390.197,307.497 382.863,307.831 375.5,307.5C 375.5,307.167 375.5,306.833 375.5,306.5C 378.393,305.108 379.06,302.941 377.5,300C 374.774,299.818 372.107,299.318 369.5,298.5C 369.709,297.914 370.043,297.414 370.5,297C 367.183,296.502 363.85,296.335 360.5,296.5C 356.833,296.5 353.167,296.5 349.5,296.5C 346.833,296.5 344.167,296.5 341.5,296.5 Z"/></g>
<g><path style="opacity:0.008" fill="#000000" d="M 123.5,299.5 C 124.833,300.167 124.833,300.167 123.5,299.5 Z"/></g>
<g><path style="opacity:0.008" fill="#000000" d="M 193.5,299.5 C 194.833,300.167 194.833,300.167 193.5,299.5 Z"/></g>
<g><path style="opacity:1" fill="#636979" d="M 730.5,252.5 C 731.376,252.369 732.043,252.702 732.5,253.5C 712.192,271.471 691.859,289.471 671.5,307.5C 655.942,300.887 640.275,294.554 624.5,288.5C 608.111,296.614 591.611,304.28 575,311.5C 555.262,303.051 535.428,294.717 515.5,286.5C 505.539,291.815 495.872,297.648 486.5,304C 484.5,304.667 482.5,304.667 480.5,304C 474.802,301.151 469.136,298.318 463.5,295.5C 453.198,301.97 443.031,308.637 433,315.5C 432.833,315.167 432.667,314.833 432.5,314.5C 442.56,307.109 452.893,300.109 463.5,293.5C 470.272,296.969 477.105,300.303 484,303.5C 494.382,296.947 504.882,290.613 515.5,284.5C 535.494,292.457 555.327,300.79 575,309.5C 591.642,302.264 608.142,294.597 624.5,286.5C 639.324,292.084 653.991,297.917 668.5,304C 670.167,304.667 671.833,304.667 673.5,304C 692.695,286.968 711.695,269.801 730.5,252.5 Z"/></g>
<g><path style="opacity:1" fill="#8472e2" d="M 341.5,296.5 C 344.167,296.5 346.833,296.5 349.5,296.5C 349.577,297.75 350.244,298.583 351.5,299C 353.5,299.333 355.5,299.667 357.5,300C 359.773,304.308 363.44,306.308 368.5,306C 362.175,306.5 355.842,306.666 349.5,306.5C 346.536,304.038 343.703,301.371 341,298.5C 340.308,297.563 340.475,296.897 341.5,296.5 Z"/></g>
<g><path style="opacity:1" fill="#5b8fd4" d="M 360.5,296.5 C 363.85,296.335 367.183,296.502 370.5,297C 370.043,297.414 369.709,297.914 369.5,298.5C 372.107,299.318 374.774,299.818 377.5,300C 379.06,302.941 378.393,305.108 375.5,306.5C 372.888,305.629 370.221,304.963 367.5,304.5C 367.511,300.648 365.511,298.815 361.5,299C 360.748,298.329 360.414,297.496 360.5,296.5 Z"/></g>
<g><path style="opacity:0.008" fill="#000000" d="M 125.5,301.5 C 126.833,302.167 126.833,302.167 125.5,301.5 Z"/></g>
<g><path style="opacity:1" fill="#7b85dc" d="M 349.5,296.5 C 353.167,296.5 356.833,296.5 360.5,296.5C 360.414,297.496 360.748,298.329 361.5,299C 365.511,298.815 367.511,300.648 367.5,304.5C 370.221,304.963 372.888,305.629 375.5,306.5C 375.5,306.833 375.5,307.167 375.5,307.5C 366.651,307.826 357.984,307.493 349.5,306.5C 355.842,306.666 362.175,306.5 368.5,306C 363.44,306.308 359.773,304.308 357.5,300C 355.5,299.667 353.5,299.333 351.5,299C 350.244,298.583 349.577,297.75 349.5,296.5 Z"/></g>
<g><path style="opacity:0.008" fill="#000000" d="M 127.5,303.5 C 128.833,304.167 128.833,304.167 127.5,303.5 Z"/></g>
<g><path style="opacity:0.302" fill="#191514" d="M 188.5,301.5 C 187.564,304.768 185.564,307.101 182.5,308.5C 183.781,305.553 185.781,303.219 188.5,301.5 Z"/></g>
<g><path style="opacity:0.008" fill="#000000" d="M 131.5,307.5 C 132.833,308.167 132.833,308.167 131.5,307.5 Z"/></g>
<g><path style="opacity:0.008" fill="#000000" d="M 187.5,307.5 C 188.833,308.167 188.833,308.167 187.5,307.5 Z"/></g>
<g><path style="opacity:0.008" fill="#000000" d="M 185.5,309.5 C 186.833,310.167 186.833,310.167 185.5,309.5 Z"/></g>
<g><path style="opacity:0.008" fill="#000000" d="M 183.5,311.5 C 184.833,312.167 184.833,312.167 183.5,311.5 Z"/></g>
<g><path style="opacity:0.008" fill="#000000" d="M 137.5,313.5 C 138.833,314.167 138.833,314.167 137.5,313.5 Z"/></g>
<g><path style="opacity:0.008" fill="#000000" d="M 181.5,313.5 C 182.833,314.167 182.833,314.167 181.5,313.5 Z"/></g>
<g><path style="opacity:0.008" fill="#000000" d="M 139.5,315.5 C 140.833,316.167 140.833,316.167 139.5,315.5 Z"/></g>
<g><path style="opacity:1" fill="#9766e8" d="M 349.5,314.5 C 357.984,313.507 366.651,313.174 375.5,313.5C 377.631,314.314 379.964,314.814 382.5,315C 381.833,315.667 381.167,316.333 380.5,317C 383.833,317.667 387.167,318.333 390.5,319C 391.056,319.383 391.389,319.883 391.5,320.5C 390.5,322.167 389.167,323.5 387.5,324.5C 379.5,324.5 371.5,324.5 363.5,324.5C 365.964,323.257 368.63,322.257 371.5,321.5C 369.851,320.352 368.351,319.019 367,317.5C 366.383,316.551 366.549,315.718 367.5,315C 361.509,314.501 355.509,314.334 349.5,314.5 Z"/></g>
<g><path style="opacity:1" fill="#807ee6" d="M 375.5,313.5 C 382.863,313.169 390.197,313.503 397.5,314.5C 395.812,316.854 393.812,318.854 391.5,320.5C 391.389,319.883 391.056,319.383 390.5,319C 387.167,318.333 383.833,317.667 380.5,317C 381.167,316.333 381.833,315.667 382.5,315C 379.964,314.814 377.631,314.314 375.5,313.5 Z"/></g>
<g><path style="opacity:1" fill="#ad4aef" d="M 349.5,314.5 C 355.509,314.334 361.509,314.501 367.5,315C 366.549,315.718 366.383,316.551 367,317.5C 368.351,319.019 369.851,320.352 371.5,321.5C 368.63,322.257 365.964,323.257 363.5,324.5C 355.648,324.825 347.982,324.492 340.5,323.5C 343.167,320.167 346.167,317.167 349.5,314.5 Z"/></g>
<g><path style="opacity:1" fill="#f0eff0" d="M 432.5,324.5 C 532.581,324.005 632.581,324.505 732.5,326C 682.308,327.165 631.975,327.665 581.5,327.5C 531.5,327.167 481.5,326.833 431.5,326.5C 431.863,325.817 432.196,325.15 432.5,324.5 Z"/></g>
<g><path style="opacity:0.999" fill="#e4e4e4" d="M 224.5,347.5 C 224.833,348.5 225.5,349.167 226.5,349.5C 229.944,352.951 232.61,356.951 234.5,361.5C 234.427,363.027 235.094,364.027 236.5,364.5C 239.245,367.712 241.245,371.379 242.5,375.5C 242.427,377.027 243.094,378.027 244.5,378.5C 244.5,378.833 244.5,379.167 244.5,379.5C 244.427,381.027 245.094,382.027 246.5,382.5C 246.5,382.833 246.5,383.167 246.5,383.5C 246.932,384.71 247.599,385.71 248.5,386.5C 255.087,397.332 262.42,407.666 270.5,417.5C 270.491,419.308 270.991,420.975 272,422.5C 273.629,422.164 275.129,422.83 276.5,424.5C 278.207,425.873 279.54,427.539 280.5,429.5C 280.294,431.549 279.461,431.883 278,430.5C 277.5,431 277,431.5 276.5,432C 285.709,442.207 294.543,452.707 303,463.5C 304.666,462.66 304.833,463.16 303.5,465C 304.931,465.465 306.097,466.299 307,467.5C 307.333,466.833 307.667,466.167 308,465.5C 309.739,467.768 311.905,469.435 314.5,470.5C 315.728,471.306 316.728,472.306 317.5,473.5C 316.252,476.952 317.585,478.952 321.5,479.5C 322.833,481.5 324.5,483.167 326.5,484.5C 324.61,484.703 323.11,484.037 322,482.5C 318.151,485.208 314.985,488.541 312.5,492.5C 310.473,492.662 308.473,492.495 306.5,492C 303.531,489.682 300.198,488.182 296.5,487.5C 296.833,486.833 297.167,486.167 297.5,485.5C 279.879,467.877 262.546,449.877 245.5,431.5C 235.337,416.51 225.17,401.51 215,386.5C 215.161,392.497 215.661,398.497 216.5,404.5C 216.355,407.867 216.022,411.201 215.5,414.5C 215.5,422.5 215.5,430.5 215.5,438.5C 200.171,446.496 184.504,453.996 168.5,461C 163.732,462.025 159.066,463.358 154.5,465C 149.448,465.726 144.448,465.559 139.5,464.5C 148.77,454.765 146.77,451.099 133.5,453.5C 125.897,433.695 119.73,413.361 115,392.5C 114.251,389.243 112.584,386.576 110,384.5C 102.933,395.321 96.4331,406.321 90.5,417.5C 89.5987,418.29 88.9321,419.29 88.5,420.5C 88.5,420.833 88.5,421.167 88.5,421.5C 87.0937,421.973 86.427,422.973 86.5,424.5C 85.9862,426.512 85.8195,428.512 86,430.5C 96.0682,439.404 106.568,447.737 117.5,455.5C 118.934,456.588 119.934,457.922 120.5,459.5C 121.209,460.404 122.209,460.737 123.5,460.5C 123.318,465.367 121.652,469.701 118.5,473.5C 119.376,474.251 120.376,474.751 121.5,475C 120.584,475.278 119.918,475.778 119.5,476.5C 116.406,478.347 113.072,478.847 109.5,478C 90.6823,465.499 72.849,451.666 56,436.5C 54.8723,433.915 54.039,431.248 53.5,428.5C 56.6578,415.559 61.4912,403.226 68,391.5C 77.4201,374.996 88.0868,359.329 100,344.5C 104.22,340.61 108.72,337.11 113.5,334C 121.193,331.964 128.86,330.131 136.5,328.5C 146.779,330.114 157.112,330.614 167.5,330C 169.848,329.89 171.348,328.723 172,326.5C 172.671,327.252 173.504,327.586 174.5,327.5C 182.543,324.72 190.543,324.887 198.5,328C 208.491,332.836 217.157,339.336 224.5,347.5 Z M 133.5,453.5 C 129.306,455.763 124.973,457.763 120.5,459.5C 119.934,457.922 118.934,456.588 117.5,455.5C 106.568,447.737 96.0682,439.404 86,430.5C 85.8195,428.512 85.9862,426.512 86.5,424.5C 87.9063,424.027 88.573,423.027 88.5,421.5C 88.5,421.167 88.5,420.833 88.5,420.5C 90.0481,420.179 90.7148,419.179 90.5,417.5C 96.4331,406.321 102.933,395.321 110,384.5C 112.584,386.576 114.251,389.243 115,392.5C 119.73,413.361 125.897,433.695 133.5,453.5 Z"/></g>
<g><path style="opacity:0.008" fill="#000000" d="M 213.5,333.5 C 214.833,334.167 214.833,334.167 213.5,333.5 Z"/></g>
<g><path style="opacity:1" fill="#e5e5e4" d="M 434.5,338.5 C 455.503,338.333 476.503,338.5 497.5,339C 502.833,342.333 502.833,345.667 497.5,349C 477.5,349.667 457.5,349.667 437.5,349C 435.899,348.727 434.399,348.227 433,347.5C 432.207,344.259 432.707,341.259 434.5,338.5 Z"/></g>
<g><path style="opacity:1" fill="#5669fa" d="M 696.5,337.5 C 706.506,337.334 716.506,337.5 726.5,338C 732.727,341.478 733.06,345.478 727.5,350C 716.833,350.667 706.167,350.667 695.5,350C 691.321,345.414 691.655,341.247 696.5,337.5 Z"/></g>
<g><path style="opacity:0.008" fill="#000000" d="M 93.5,347.5 C 94.8333,348.167 94.8333,348.167 93.5,347.5 Z"/></g>
<g><path style="opacity:0.024" fill="#131315" d="M 224.5,347.5 C 225.833,347.5 226.5,348.167 226.5,349.5C 225.5,349.167 224.833,348.5 224.5,347.5 Z"/></g>
<g><path style="opacity:0.008" fill="#000000" d="M 91.5,349.5 C 92.8333,350.167 92.8333,350.167 91.5,349.5 Z"/></g>
<g><path style="opacity:0.008" fill="#000000" d="M 85.5,357.5 C 86.8333,358.167 86.8333,358.167 85.5,357.5 Z"/></g>
<g><path style="opacity:0.008" fill="#000000" d="M 81.5,363.5 C 82.8333,364.167 82.8333,364.167 81.5,363.5 Z"/></g>
<g><path style="opacity:0.294" fill="#3e403f" d="M 234.5,361.5 C 235.906,361.973 236.573,362.973 236.5,364.5C 235.094,364.027 234.427,363.027 234.5,361.5 Z"/></g>
<g><path style="opacity:0.008" fill="#000000" d="M 77.5,369.5 C 78.8333,370.167 78.8333,370.167 77.5,369.5 Z"/></g>
<g><path style="opacity:0.188" fill="#090e0c" d="M 764.5,370.5 C 764.5,371.833 763.833,372.5 762.5,372.5C 762.833,371.5 763.5,370.833 764.5,370.5 Z"/></g>
<g><path style="opacity:0.008" fill="#000000" d="M 765.5,373.5 C 766.833,374.167 766.833,374.167 765.5,373.5 Z"/></g>
<g><path style="opacity:0.329" fill="#222222" d="M 242.5,375.5 C 243.906,375.973 244.573,376.973 244.5,378.5C 243.094,378.027 242.427,377.027 242.5,375.5 Z"/></g>
<g><path style="opacity:0.427" fill="#222122" d="M 244.5,379.5 C 245.906,379.973 246.573,380.973 246.5,382.5C 245.094,382.027 244.427,381.027 244.5,379.5 Z"/></g>
<g><path style="opacity:0.125" fill="#111210" d="M 246.5,383.5 C 248.048,383.821 248.715,384.821 248.5,386.5C 247.599,385.71 246.932,384.71 246.5,383.5 Z"/></g>
<g><path style="opacity:0.008" fill="#000000" d="M 261.5,401.5 C 262.833,402.167 262.833,402.167 261.5,401.5 Z"/></g>
<g><path style="opacity:0.008" fill="#000000" d="M 263.5,403.5 C 264.833,404.167 264.833,404.167 263.5,403.5 Z"/></g>
<g><path style="opacity:0.008" fill="#000000" d="M 271.5,413.5 C 272.833,414.167 272.833,414.167 271.5,413.5 Z"/></g>
<g><path style="opacity:0.125" fill="#1d1e1e" d="M 90.5,417.5 C 90.7148,419.179 90.0481,420.179 88.5,420.5C 88.9321,419.29 89.5987,418.29 90.5,417.5 Z"/></g>
<g><path style="opacity:0.941" fill="#898989" d="M 270.5,417.5 C 273.564,418.899 275.564,421.232 276.5,424.5C 275.129,422.83 273.629,422.164 272,422.5C 270.991,420.975 270.491,419.308 270.5,417.5 Z"/></g>
<g><path style="opacity:0.235" fill="#141414" d="M 88.5,421.5 C 88.573,423.027 87.9063,424.027 86.5,424.5C 86.427,422.973 87.0937,421.973 88.5,421.5 Z"/></g>
<g><path style="opacity:0.008" fill="#000000" d="M 281.5,425.5 C 282.833,426.167 282.833,426.167 281.5,425.5 Z"/></g>
<g><path style="opacity:0.008" fill="#000000" d="M 283.5,427.5 C 284.833,428.167 284.833,428.167 283.5,427.5 Z"/></g>
<g><path style="opacity:1" fill="#cccbc8" d="M 280.5,429.5 C 282.417,430.909 284.25,432.576 286,434.5C 294.024,445.015 302.19,455.348 310.5,465.5C 310.833,466.5 311.5,467.167 312.5,467.5C 313.906,467.973 314.573,468.973 314.5,470.5C 311.905,469.435 309.739,467.768 308,465.5C 307.667,466.167 307.333,466.833 307,467.5C 306.097,466.299 304.931,465.465 303.5,465C 304.833,463.16 304.666,462.66 303,463.5C 294.543,452.707 285.709,442.207 276.5,432C 277,431.5 277.5,431 278,430.5C 279.461,431.883 280.294,431.549 280.5,429.5 Z"/></g>
<g><path style="opacity:0.008" fill="#000000" d="M 289.5,435.5 C 290.833,436.167 290.833,436.167 289.5,435.5 Z"/></g>
<g><path style="opacity:0.008" fill="#000000" d="M 291.5,437.5 C 292.833,438.167 292.833,438.167 291.5,437.5 Z"/></g>
<g><path style="opacity:0.008" fill="#000000" d="M 59.5,443.5 C 60.8333,444.167 60.8333,444.167 59.5,443.5 Z"/></g>
<g><path style="opacity:0.008" fill="#000000" d="M 945.5,443.5 C 946.833,444.167 946.833,444.167 945.5,443.5 Z"/></g>
<g><path style="opacity:1" fill="#2b2d41" d="M 215.5,414.5 C 216.167,422.676 216.833,431.01 217.5,439.5C 219.73,442.991 221.397,446.657 222.5,450.5C 221.957,450.56 221.624,450.893 221.5,451.5C 224.667,457.167 227.833,462.833 231,468.5C 231.464,467.906 231.631,467.239 231.5,466.5C 232.404,467.209 232.737,468.209 232.5,469.5C 248.75,471.612 264.417,475.279 279.5,480.5C 277.621,480.393 277.288,480.893 278.5,482C 284.42,484.129 290.42,485.962 296.5,487.5C 300.198,488.182 303.531,489.682 306.5,492C 308.473,492.495 310.473,492.662 312.5,492.5C 325.456,501.651 338.789,510.318 352.5,518.5C 353.885,519.574 355.051,520.907 356,522.5C 356.667,527.833 356.667,533.167 356,538.5C 350.878,549.992 346.211,561.658 342,573.5C 341.263,575.596 340.097,577.263 338.5,578.5C 338.631,577.761 338.464,577.094 338,576.5C 337.333,577.833 336.667,579.167 336,580.5C 335.396,578.314 334.23,578.148 332.5,580C 332.957,580.414 333.291,580.914 333.5,581.5C 331.403,584.074 329.736,586.907 328.5,590C 330.149,596.144 328.982,601.977 325,607.5C 324.331,604.972 323.498,604.972 322.5,607.5C 323.33,612.538 322.163,617.205 319,621.5C 318.667,620.833 318.333,620.167 318,619.5C 315.635,621.365 315.468,623.032 317.5,624.5C 315.043,630.426 311.376,635.426 306.5,639.5C 300.634,636.768 294.634,634.434 288.5,632.5C 286.891,631.229 285.058,630.229 283,629.5C 282.472,630.816 282.972,631.483 284.5,631.5C 284.238,632.978 284.571,634.311 285.5,635.5C 291.223,639.08 294.89,644.246 296.5,651C 296.192,652.459 295.525,653.626 294.5,654.5C 294.19,653.262 293.69,653.262 293,654.5C 292.59,655.901 292.09,657.234 291.5,658.5C 283.5,658.5 275.5,658.5 267.5,658.5C 266.5,657.833 265.5,657.167 264.5,656.5C 262.967,654.755 260.967,653.755 258.5,653.5C 253.657,653.592 251.324,651.259 251.5,646.5C 255.366,637.321 258.7,627.988 261.5,618.5C 253.27,613.114 245.436,607.114 238,600.5C 234.671,593.199 236.504,587.199 243.5,582.5C 253.5,573.167 263.167,563.5 272.5,553.5C 276.634,549.2 280.968,545.034 285.5,541C 256.508,535.253 227.508,529.753 198.5,524.5C 198.567,529.636 197.9,534.636 196.5,539.5C 195.335,544.633 194.668,549.966 194.5,555.5C 192.592,584.192 197.092,611.525 208,637.5C 209.748,645.192 211.248,652.858 212.5,660.5C 211.848,661.449 211.514,662.615 211.5,664C 219.012,700.477 221.512,737.31 219,774.5C 218.5,775.667 217.667,776.5 216.5,777C 213.28,777.716 210.28,778.883 207.5,780.5C 207.957,781.298 208.624,781.631 209.5,781.5C 213.137,784.306 216.304,787.639 219,791.5C 220.158,796.307 219.324,800.64 216.5,804.5C 212.555,805.825 208.222,806.492 203.5,806.5C 199.167,806.333 194.833,806.167 190.5,806C 186.166,804.787 181.832,803.62 177.5,802.5C 177.036,796.268 177.703,790.268 179.5,784.5C 174.505,784.96 169.838,783.96 165.5,781.5C 163.787,780.122 162.453,778.455 161.5,776.5C 160.227,772.526 159.06,768.526 158,764.5C 154.749,739.595 152.082,714.595 150,689.5C 148.414,655.835 146.747,622.168 145,588.5C 140.767,570.335 137.1,552.002 134,533.5C 132.09,523.61 131.256,513.61 131.5,503.5C 131.5,492.5 131.5,481.5 131.5,470.5C 134.128,468.512 136.795,466.512 139.5,464.5C 144.448,465.559 149.448,465.726 154.5,465C 159.066,463.358 163.732,462.025 168.5,461C 184.504,453.996 200.171,446.496 215.5,438.5C 215.5,430.5 215.5,422.5 215.5,414.5 Z"/></g>
<g><path style="opacity:0.983" fill="#e4e2e2" d="M 944.5,447.5 C 943.947,452.482 943.613,457.482 943.5,462.5C 942.501,502.663 942.168,542.997 942.5,583.5C 876.833,583.5 811.167,583.5 745.5,583.5C 728.482,584.094 711.482,584.094 694.5,583.5C 766.157,582.651 844.49,582.151 929.5,582C 927.381,581.902 925.714,581.069 924.5,579.5C 927.785,578.676 931.118,578.176 934.5,578C 807.491,577.824 680.491,577.324 553.5,576.5C 542.179,577.109 530.845,577.442 519.5,577.5C 509.438,577.487 499.605,576.82 490,575.5C 488.491,577.919 486.325,578.919 483.5,578.5C 483.5,579.5 483.5,580.5 483.5,581.5C 482.036,540.984 480.703,500.151 479.5,459C 479.277,454.645 479.944,450.478 481.5,446.5C 482.665,445.416 483.998,444.583 485.5,444C 628.956,445.39 772.456,445.89 916,445.5C 924.48,444.335 932.98,443.835 941.5,444C 943.063,444.759 944.063,445.926 944.5,447.5 Z"/></g>
<g><path style="opacity:0.008" fill="#000000" d="M 299.5,447.5 C 300.833,448.167 300.833,448.167 299.5,447.5 Z"/></g>
<g><path style="opacity:0.008" fill="#000000" d="M 71.5,453.5 C 72.8333,454.167 72.8333,454.167 71.5,453.5 Z"/></g>
<g><path style="opacity:0.933" fill="#656769" d="M 222.5,450.5 C 225.987,455.465 228.987,460.798 231.5,466.5C 231.631,467.239 231.464,467.906 231,468.5C 227.833,462.833 224.667,457.167 221.5,451.5C 221.624,450.893 221.957,450.56 222.5,450.5 Z"/></g>
<g><path style="opacity:1" fill="#f8b7b6" d="M 139.5,464.5 C 136.795,466.512 134.128,468.512 131.5,470.5C 130.29,470.932 129.29,471.599 128.5,472.5C 125.878,474.644 122.878,475.977 119.5,476.5C 119.918,475.778 120.584,475.278 121.5,475C 120.376,474.751 119.376,474.251 118.5,473.5C 121.652,469.701 123.318,465.367 123.5,460.5C 122.209,460.737 121.209,460.404 120.5,459.5C 124.973,457.763 129.306,455.763 133.5,453.5C 146.77,451.099 148.77,454.765 139.5,464.5 Z"/></g>
<g><path style="opacity:1" fill="#fdfcfc" d="M 491.5,454.5 C 639.167,454.5 786.833,454.5 934.5,454.5C 934.5,495.167 934.5,535.833 934.5,576.5C 786.833,576.394 639.166,576.061 491.5,575.5C 491.5,535.167 491.5,494.833 491.5,454.5 Z"/></g>
<g><path style="opacity:0.008" fill="#000000" d="M 307.5,457.5 C 308.833,458.167 308.833,458.167 307.5,457.5 Z"/></g>
<g><path style="opacity:0.008" fill="#000000" d="M 309.5,459.5 C 310.833,460.167 310.833,460.167 309.5,459.5 Z"/></g>
<g><path style="opacity:0.008" fill="#000000" d="M 87.5,465.5 C 88.8333,466.167 88.8333,466.167 87.5,465.5 Z"/></g>
<g><path style="opacity:0.016" fill="#0b0b0b" d="M 310.5,465.5 C 311.833,465.5 312.5,466.167 312.5,467.5C 311.5,467.167 310.833,466.5 310.5,465.5 Z"/></g>
<g><path style="opacity:0.008" fill="#000000" d="M 319.5,471.5 C 320.833,472.167 320.833,472.167 319.5,471.5 Z"/></g>
<g><path style="opacity:0.98" fill="#8d8b8c" d="M 317.5,473.5 C 319.61,474.95 320.943,476.95 321.5,479.5C 317.585,478.952 316.252,476.952 317.5,473.5 Z"/></g>
<g><path style="opacity:1" fill="#c8c5c9" d="M 540.5,477.5 C 569.056,476.224 585.39,489.724 589.5,518C 586.996,543.839 572.829,557.339 547,558.5C 527.432,557.368 514.766,547.368 509,528.5C 505.303,502.703 515.803,485.703 540.5,477.5 Z"/></g>
<g><path style="opacity:1" fill="#fbf8fc" d="M 539.5,479.5 C 563.514,476.748 579.347,486.748 587,509.5C 588.425,543.409 572.259,558.909 538.5,556C 517.211,548.35 507.711,533.184 510,510.5C 514.244,494.758 524.077,484.425 539.5,479.5 Z"/></g>
<g><path style="opacity:0.855" fill="#50505f" d="M 131.5,470.5 C 131.5,481.5 131.5,492.5 131.5,503.5C 130.732,502.737 130.232,501.737 130,500.5C 129.83,490.991 129.33,481.658 128.5,472.5C 129.29,471.599 130.29,470.932 131.5,470.5 Z"/></g>
<g><path style="opacity:0.808" fill="#5c5a65" d="M 279.5,480.5 C 285.352,482.671 291.352,484.338 297.5,485.5C 297.167,486.167 296.833,486.833 296.5,487.5C 290.42,485.962 284.42,484.129 278.5,482C 277.288,480.893 277.621,480.393 279.5,480.5 Z"/></g>
<g><path style="opacity:1" fill="#f3b6b3" d="M 326.5,484.5 C 334.468,488.484 342.135,492.984 349.5,498C 353.064,500.728 356.064,503.895 358.5,507.5C 359.388,510.054 359.721,512.721 359.5,515.5C 357.265,515.205 355.265,515.539 353.5,516.5C 353.167,517.167 352.833,517.833 352.5,518.5C 338.789,510.318 325.456,501.651 312.5,492.5C 314.985,488.541 318.151,485.208 322,482.5C 323.11,484.037 324.61,484.703 326.5,484.5 Z"/></g>
<g><path style="opacity:0.008" fill="#000000" d="M 347.5,493.5 C 348.833,494.167 348.833,494.167 347.5,493.5 Z"/></g>
<g><path style="opacity:0.558" fill="#0f1111" d="M 944.5,447.5 C 945.152,448.449 945.486,449.615 945.5,451C 944.851,495.655 944.185,540.155 943.5,584.5C 943.5,543.833 943.5,503.167 943.5,462.5C 943.613,457.482 943.947,452.482 944.5,447.5 Z"/></g>
<g><path style="opacity:0.915" fill="#959896" d="M 943.5,462.5 C 943.5,503.167 943.5,543.833 943.5,584.5C 939.563,584.207 935.73,584.54 932,585.5C 869.736,584.835 807.569,584.168 745.5,583.5C 811.167,583.5 876.833,583.5 942.5,583.5C 942.168,542.997 942.501,502.663 943.5,462.5 Z"/></g>
<g><path style="opacity:0.008" fill="#000000" d="M 355.5,499.5 C 356.833,500.167 356.833,500.167 355.5,499.5 Z"/></g>
<g><path style="opacity:0.008" fill="#000000" d="M 357.5,501.5 C 358.833,502.167 358.833,502.167 357.5,501.5 Z"/></g>
<g><path style="opacity:1" fill="#543efa" d="M 535.5,492.5 C 536.552,492.351 537.552,492.517 538.5,493C 541.648,496.071 544.981,498.904 548.5,501.5C 551.864,498.299 555.364,495.299 559,492.5C 562.017,492.995 564.517,494.329 566.5,496.5C 554.244,512.461 541.911,512.461 529.5,496.5C 531.219,494.648 533.219,493.314 535.5,492.5 Z"/></g>
<g><path style="opacity:0.008" fill="#000000" d="M 359.5,503.5 C 360.833,504.167 360.833,504.167 359.5,503.5 Z"/></g>
<g><path style="opacity:0.008" fill="#000000" d="M 361.5,505.5 C 362.833,506.167 362.833,506.167 361.5,505.5 Z"/></g>
<g><path style="opacity:0.124" fill="#251b1a" d="M 358.5,507.5 C 360.388,509.988 361.055,512.988 360.5,516.5C 358.167,516.5 355.833,516.5 353.5,516.5C 355.265,515.539 357.265,515.205 359.5,515.5C 359.721,512.721 359.388,510.054 358.5,507.5 Z"/></g>
<g><path style="opacity:1" fill="#4c3efb" d="M 525.5,499.5 C 543.784,511.227 544.117,523.561 526.5,536.5C 524.329,534.517 522.995,532.017 522.5,529C 525.5,525.333 528.5,521.667 531.5,518C 529.05,514.547 526.217,511.38 523,508.5C 522.64,505.206 523.473,502.206 525.5,499.5 Z"/></g>
<g><path style="opacity:1" fill="#636878" d="M 908.5,466.5 C 909.376,466.369 910.043,466.702 910.5,467.5C 909.352,469.149 908.019,470.649 906.5,472C 887.655,488.18 868.822,504.347 850,520.5C 834.586,514.362 819.253,508.029 804,501.5C 788.379,508.56 772.879,516.06 757.5,524C 756.333,524.167 755.167,524.333 754,524.5C 733.918,516.362 713.918,508.028 694,499.5C 684.099,505.535 674.266,511.702 664.5,518C 663.167,518.667 661.833,518.667 660.5,518C 654.616,514.891 648.616,512.058 642.5,509.5C 632.194,514.654 622.528,520.82 613.5,528C 612.833,528.667 612.167,528.667 611.5,528C 620.892,520.943 630.558,514.276 640.5,508C 641.833,507.333 643.167,507.333 644.5,508C 650.384,511.109 656.384,513.942 662.5,516.5C 673.393,510.804 683.893,504.471 694,497.5C 714.172,505.693 734.172,514.027 754,522.5C 770.432,515.034 786.932,507.701 803.5,500.5C 819.379,506.049 835.046,512.049 850.5,518.5C 870.177,501.486 889.51,484.153 908.5,466.5 Z"/></g>
<g><path style="opacity:1" fill="#543ffb" d="M 569.5,499.5 C 571.411,499.574 572.578,500.574 573,502.5C 573.667,504.833 573.667,507.167 573,509.5C 570.115,512.048 567.615,514.882 565.5,518C 566.929,521.763 569.429,524.596 573,526.5C 573.667,528.833 573.667,531.167 573,533.5C 572.653,535.18 571.653,536.18 570,536.5C 565.346,533.179 561.346,529.179 558,524.5C 557.333,520.167 557.333,515.833 558,511.5C 562.037,507.631 565.87,503.631 569.5,499.5 Z"/></g>
<g><path style="opacity:1" fill="#4d40fb" d="M 541.5,527.5 C 546.179,527.334 550.845,527.501 555.5,528C 559.682,532.015 563.682,536.182 567.5,540.5C 564.476,542.589 561.142,543.423 557.5,543C 554.651,539.984 551.651,537.15 548.5,534.5C 545.349,537.15 542.349,539.984 539.5,543C 535.516,544.115 532.182,543.115 529.5,540C 533.704,535.964 537.704,531.798 541.5,527.5 Z"/></g>
<g><path style="opacity:1" fill="#eeeced" d="M 610.5,538.5 C 710.836,538.167 811.169,538.5 911.5,539.5C 861.333,539.833 811.167,540.167 761,540.5C 710.496,540.5 660.329,539.833 610.5,538.5 Z"/></g>
<g><path style="opacity:0.008" fill="#000000" d="M 277.5,543.5 C 278.833,544.167 278.833,544.167 277.5,543.5 Z"/></g>
<g><path style="opacity:0.178" fill="#0e0e10" d="M 196.5,539.5 C 196.745,545.084 196.078,550.417 194.5,555.5C 194.668,549.966 195.335,544.633 196.5,539.5 Z"/></g>
<g><path style="opacity:0.008" fill="#000000" d="M 275.5,545.5 C 276.833,546.167 276.833,546.167 275.5,545.5 Z"/></g>
<g><path style="opacity:0.008" fill="#000000" d="M 273.5,547.5 C 274.833,548.167 274.833,548.167 273.5,547.5 Z"/></g>
<g><path style="opacity:0.008" fill="#000000" d="M 353.5,549.5 C 354.833,550.167 354.833,550.167 353.5,549.5 Z"/></g>
<g><path style="opacity:0.996" fill="#e6e6e5" d="M 613.5,552.5 C 634.836,552.333 656.169,552.5 677.5,553C 681.615,556.601 681.281,559.934 676.5,563C 656.167,563.667 635.833,563.667 615.5,563C 611.018,560.278 610.351,556.778 613.5,552.5 Z"/></g>
<g><path style="opacity:1" fill="#5369fa" d="M 874.5,551.5 C 885.505,551.333 896.505,551.5 907.5,552C 911.979,557.258 910.979,561.258 904.5,564C 894.833,564.667 885.167,564.667 875.5,564C 870.603,560.138 870.27,555.972 874.5,551.5 Z"/></g>
<g><path style="opacity:0.008" fill="#000000" d="M 255.5,563.5 C 256.833,564.167 256.833,564.167 255.5,563.5 Z"/></g>
<g><path style="opacity:0.008" fill="#000000" d="M 253.5,565.5 C 254.833,566.167 254.833,566.167 253.5,565.5 Z"/></g>
<g><path style="opacity:0.008" fill="#000000" d="M 251.5,567.5 C 252.833,568.167 252.833,568.167 251.5,567.5 Z"/></g>
<g><path style="opacity:0.008" fill="#000000" d="M 249.5,569.5 C 250.833,570.167 250.833,570.167 249.5,569.5 Z"/></g>
<g><path style="opacity:0.455" fill="#4f4f59" d="M 272.5,553.5 C 263.167,563.5 253.5,573.167 243.5,582.5C 243.281,581.325 243.614,580.325 244.5,579.5C 251.167,572.833 257.833,566.167 264.5,559.5C 266.921,557.066 269.588,555.066 272.5,553.5 Z"/></g>
<g><path style="opacity:0.008" fill="#000000" d="M 247.5,571.5 C 248.833,572.167 248.833,572.167 247.5,571.5 Z"/></g>
<g><path style="opacity:0.008" fill="#000000" d="M 245.5,573.5 C 246.833,574.167 246.833,574.167 245.5,573.5 Z"/></g>
<g><path style="opacity:0.997" fill="#dadddc" d="M 694.5,583.5 C 676.004,584.431 657.337,585.097 638.5,585.5C 586.838,584.577 535.172,584.243 483.5,584.5C 483.5,583.5 483.5,582.5 483.5,581.5C 483.5,580.5 483.5,579.5 483.5,578.5C 486.325,578.919 488.491,577.919 490,575.5C 499.605,576.82 509.438,577.487 519.5,577.5C 530.845,577.442 542.179,577.109 553.5,576.5C 680.491,577.324 807.491,577.824 934.5,578C 931.118,578.176 927.785,578.676 924.5,579.5C 925.714,581.069 927.381,581.902 929.5,582C 844.49,582.151 766.157,582.651 694.5,583.5 Z"/></g>
<g><path style="opacity:0.008" fill="#000000" d="M 237.5,583.5 C 238.833,584.167 238.833,584.167 237.5,583.5 Z"/></g>
<g><path style="opacity:1" fill="#3b3b46" d="M 338.5,578.5 C 332.284,599.264 323.617,618.93 312.5,637.5C 309.722,640.307 306.389,641.14 302.5,640C 297.583,637.792 292.916,635.292 288.5,632.5C 294.634,634.434 300.634,636.768 306.5,639.5C 311.376,635.426 315.043,630.426 317.5,624.5C 315.468,623.032 315.635,621.365 318,619.5C 318.333,620.167 318.667,620.833 319,621.5C 322.163,617.205 323.33,612.538 322.5,607.5C 323.498,604.972 324.331,604.972 325,607.5C 328.982,601.977 330.149,596.144 328.5,590C 329.736,586.907 331.403,584.074 333.5,581.5C 333.291,580.914 332.957,580.414 332.5,580C 334.23,578.148 335.396,578.314 336,580.5C 336.667,579.167 337.333,577.833 338,576.5C 338.464,577.094 338.631,577.761 338.5,578.5 Z"/></g>
<g><path style="opacity:0.008" fill="#000000" d="M 233.5,589.5 C 234.833,590.167 234.833,590.167 233.5,589.5 Z"/></g>
<g><path style="opacity:0.008" fill="#000000" d="M 233.5,599.5 C 234.833,600.167 234.833,600.167 233.5,599.5 Z"/></g>
<g><path style="opacity:0.008" fill="#000000" d="M 235.5,601.5 C 236.833,602.167 236.833,602.167 235.5,601.5 Z"/></g>
<g><path style="opacity:0.008" fill="#000000" d="M 237.5,603.5 C 238.833,604.167 238.833,604.167 237.5,603.5 Z"/></g>
<g><path style="opacity:0.008" fill="#000000" d="M 239.5,605.5 C 240.833,606.167 240.833,606.167 239.5,605.5 Z"/></g>
<g><path style="opacity:0.008" fill="#000000" d="M 241.5,607.5 C 242.833,608.167 242.833,608.167 241.5,607.5 Z"/></g>
<g><path style="opacity:0.18" fill="#959797" d="M 288.5,632.5 C 287.041,632.567 285.708,632.234 284.5,631.5C 282.972,631.483 282.472,630.816 283,629.5C 285.058,630.229 286.891,631.229 288.5,632.5 Z"/></g>
<g><path style="opacity:0.008" fill="#000000" d="M 295.5,641.5 C 296.833,642.167 296.833,642.167 295.5,641.5 Z"/></g>
<g><path style="opacity:0.008" fill="#000000" d="M 243.5,653.5 C 244.833,654.167 244.833,654.167 243.5,653.5 Z"/></g>
<g><path style="opacity:1" fill="#a0a5b6" d="M 258.5,653.5 C 260.967,653.755 262.967,654.755 264.5,656.5C 262.033,656.245 260.033,655.245 258.5,653.5 Z"/></g>
<g><path style="opacity:0.108" fill="#c2c4c5" d="M 294.5,654.5 C 294.5,655.5 294.5,656.5 294.5,657.5C 346.833,657.5 399.167,657.5 451.5,657.5C 398.336,658.499 345.003,658.832 291.5,658.5C 292.09,657.234 292.59,655.901 293,654.5C 293.69,653.262 294.19,653.262 294.5,654.5 Z"/></g>
<g><path style="opacity:0.991" fill="#dfdfdf" d="M 451.5,657.5 C 527.47,657.384 603.47,657.551 679.5,658C 686.5,658.333 693.5,658.667 700.5,659C 702.744,659.05 704.411,659.883 705.5,661.5C 705.828,707.239 705.495,752.905 704.5,798.5C 666.239,799.494 627.906,799.827 589.5,799.5C 542.165,799.399 494.832,799.066 447.5,798.5C 379.512,800.061 311.512,800.728 243.5,800.5C 243.134,798.095 242.467,795.762 241.5,793.5C 242,791.5 242.5,789.5 243,787.5C 243.405,755.319 242.905,723.153 241.5,691C 242.098,680.144 242.764,669.311 243.5,658.5C 251.5,658.5 259.5,658.5 267.5,658.5C 275.5,658.5 283.5,658.5 291.5,658.5C 345.003,658.832 398.336,658.499 451.5,657.5 Z"/></g>
<g><path style="opacity:1" fill="#fdfcfd" d="M 252.5,668.5 C 400.167,668.5 547.833,668.5 695.5,668.5C 695.5,708.833 695.5,749.167 695.5,789.5C 547.832,790.502 400.166,790.502 252.5,789.5C 252.5,749.167 252.5,708.833 252.5,668.5 Z"/></g>
<g><path style="opacity:0.663" fill="#45444d" d="M 212.5,660.5 C 215.328,674.459 217.828,688.459 220,702.5C 220.499,708.157 220.666,713.824 220.5,719.5C 221.381,737.15 221.714,754.817 221.5,772.5C 220.85,774.435 220.517,776.435 220.5,778.5C 216.816,779.609 213.149,780.609 209.5,781.5C 208.624,781.631 207.957,781.298 207.5,780.5C 210.28,778.883 213.28,777.716 216.5,777C 217.667,776.5 218.5,775.667 219,774.5C 221.512,737.31 219.012,700.477 211.5,664C 211.514,662.615 211.848,661.449 212.5,660.5 Z"/></g>
<g><path style="opacity:0.548" fill="#0a0c0c" d="M 705.5,661.5 C 706.174,704.527 706.841,747.694 707.5,791C 707.287,794.026 706.287,796.526 704.5,798.5C 705.495,752.905 705.828,707.239 705.5,661.5 Z"/></g>
<g><path style="opacity:1" fill="#cac7d0" d="M 301.5,690.5 C 320.225,688.568 335.392,694.902 347,709.5C 357.651,729.763 354.817,747.93 338.5,764C 316.249,777.789 296.415,774.956 279,755.5C 270.714,740.009 270.38,724.343 278,708.5C 284.042,699.925 291.875,693.925 301.5,690.5 Z"/></g>
<g><path style="opacity:1" fill="#fbf8fa" d="M 308.5,692.5 C 330.032,692.215 344.199,702.215 351,722.5C 354.767,747.497 344.601,763.331 320.5,770C 297.427,773.05 282.26,763.55 275,741.5C 271.818,715.162 282.985,698.829 308.5,692.5 Z"/></g>
<g><path style="opacity:1" fill="#c54454" d="M 344.5,723.5 C 344.98,727.306 343.98,730.639 341.5,733.5C 340.289,732.726 340.289,731.893 341.5,731C 338.94,730.773 337.274,729.44 336.5,727C 332.805,725.057 329.138,723.224 325.5,721.5C 324.725,719.388 324.725,717.388 325.5,715.5C 332.728,711.984 338.894,713.318 344,719.5C 344.49,720.793 344.657,722.127 344.5,723.5 Z"/></g>
<g><path style="opacity:1" fill="#be3b88" d="M 323.5,715.5 C 321.657,718.564 321.157,721.897 322,725.5C 323.333,728.167 324.667,730.833 326,733.5C 329.731,736.671 333.231,740.005 336.5,743.5C 334.781,746.219 332.447,748.219 329.5,749.5C 328.801,747.444 327.801,745.444 326.5,743.5C 322.706,740.519 318.539,738.186 314,736.5C 310.056,737.943 307.223,740.609 305.5,744.5C 304.167,745.167 302.833,745.833 301.5,746.5C 300.081,741.912 298.914,737.246 298,732.5C 297.501,727.845 297.334,723.179 297.5,718.5C 297.833,717.167 298.167,715.833 298.5,714.5C 303.191,706.091 309.858,704.258 318.5,709C 320.765,710.758 322.432,712.925 323.5,715.5 Z"/></g>
<g><path style="opacity:0.406" fill="#070707" d="M 220.5,719.5 C 221.302,720.952 221.802,722.618 222,724.5C 222.828,740.672 222.661,756.672 221.5,772.5C 221.714,754.817 221.381,737.15 220.5,719.5 Z"/></g>
<g><path style="opacity:1" fill="#525766" d="M 670.5,679.5 C 672.028,679.517 672.528,680.184 672,681.5C 653.167,698.333 634.333,715.167 615.5,732C 614.271,732.781 612.938,733.281 611.5,733.5C 596.246,727.304 580.912,721.304 565.5,715.5C 549.157,722.755 532.99,730.421 517,738.5C 496.721,730.128 476.555,721.461 456.5,712.5C 446.699,718.469 437.033,724.636 427.5,731C 425.5,731.667 423.5,731.667 421.5,731C 416.004,727.502 410.17,724.669 404,722.5C 394.098,728.87 384.264,735.37 374.5,742C 373.668,742.688 373.002,742.521 372.5,741.5C 382.363,734.471 392.363,727.638 402.5,721C 409.311,722.278 415.645,724.945 421.5,729C 423.5,729.667 425.5,729.667 427.5,729C 437.085,722.958 446.585,716.791 456,710.5C 475.984,719.659 496.151,728.326 516.5,736.5C 532.805,728.511 549.138,720.844 565.5,713.5C 580.754,719.696 596.088,725.696 611.5,731.5C 612.938,731.281 614.271,730.781 615.5,730C 634.329,713.669 652.663,696.836 670.5,679.5 Z"/></g>
<g><path style="opacity:1" fill="#7d57d6" d="M 298.5,714.5 C 298.167,715.833 297.833,717.167 297.5,718.5C 296.732,719.263 296.232,720.263 296,721.5C 295.833,724.667 295.667,727.833 295.5,731C 295.983,737.177 296.15,743.343 296,749.5C 295.329,750.252 294.496,750.586 293.5,750.5C 282.026,742.225 277.859,731.225 281,717.5C 286.008,712.059 291.841,711.059 298.5,714.5 Z"/></g>
<g><path style="opacity:1" fill="#bc4167" d="M 323.5,715.5 C 324.167,715.5 324.833,715.5 325.5,715.5C 324.725,717.388 324.725,719.388 325.5,721.5C 329.138,723.224 332.805,725.057 336.5,727C 337.274,729.44 338.94,730.773 341.5,731C 340.289,731.893 340.289,732.726 341.5,733.5C 343.98,730.639 344.98,727.306 344.5,723.5C 345.622,731.433 342.955,738.099 336.5,743.5C 333.231,740.005 329.731,736.671 326,733.5C 324.667,730.833 323.333,728.167 322,725.5C 321.157,721.897 321.657,718.564 323.5,715.5 Z"/></g>
<g><path style="opacity:1" fill="#af3e99" d="M 297.5,718.5 C 297.334,723.179 297.501,727.845 298,732.5C 298.914,737.246 300.081,741.912 301.5,746.5C 302.833,745.833 304.167,745.167 305.5,744.5C 307.223,740.609 310.056,737.943 314,736.5C 318.539,738.186 322.706,740.519 326.5,743.5C 327.801,745.444 328.801,747.444 329.5,749.5C 324.524,754.803 318.524,758.469 311.5,760.5C 304.258,759.216 298.258,755.883 293.5,750.5C 294.496,750.586 295.329,750.252 296,749.5C 296.15,743.343 295.983,737.177 295.5,731C 295.667,727.833 295.833,724.667 296,721.5C 296.232,720.263 296.732,719.263 297.5,718.5 Z"/></g>
<g><path style="opacity:1" fill="#edebeb" d="M 372.5,751.5 C 472.557,751.007 572.557,751.507 672.5,753C 622.5,753.167 572.5,753.333 522.5,753.5C 472.162,753.5 422.162,752.833 372.5,751.5 Z"/></g>
<g><path style="opacity:1" fill="#e5e5e5" d="M 375.5,765.5 C 396.169,765.333 416.836,765.5 437.5,766C 440.645,766.441 442.312,768.275 442.5,771.5C 442.069,773.766 440.736,775.266 438.5,776C 417.833,776.667 397.167,776.667 376.5,776C 372.835,772.833 372.502,769.333 375.5,765.5 Z"/></g>
<g><path style="opacity:1" fill="#5369fa" d="M 637.5,764.5 C 647.839,764.334 658.172,764.5 668.5,765C 673.701,768.912 673.701,772.912 668.5,777C 658.167,777.667 647.833,777.667 637.5,777C 632.189,772.706 632.189,768.54 637.5,764.5 Z"/></g>
<g><path style="opacity:0.008" fill="#000000" d="M 161.5,781.5 C 162.833,782.167 162.833,782.167 161.5,781.5 Z"/></g>
<g><path style="opacity:0.008" fill="#000000" d="M 217.5,781.5 C 218.833,782.167 218.833,782.167 217.5,781.5 Z"/></g>
<g><path style="opacity:0.008" fill="#000000" d="M 163.5,783.5 C 164.833,784.167 164.833,784.167 163.5,783.5 Z"/></g>
<g><path style="opacity:0.008" fill="#000000" d="M 219.5,783.5 C 220.833,784.167 220.833,784.167 219.5,783.5 Z"/></g>
<g><path style="opacity:0.898" fill="#56585e" d="M 209.5,781.5 C 218.457,783.626 222.623,789.292 222,798.5C 221.285,801.641 219.452,803.641 216.5,804.5C 219.324,800.64 220.158,796.307 219,791.5C 216.304,787.639 213.137,784.306 209.5,781.5 Z"/></g>
<g><path style="opacity:0.098" fill="#1a2421" d="M 704.5,798.5 C 685.678,799.833 666.512,800.5 647,800.5C 627.664,800.5 608.497,800.167 589.5,799.5C 627.906,799.827 666.239,799.494 704.5,798.5 Z"/></g>
<g><path style="opacity:0.008" fill="#000000" d="M 175.5,803.5 C 176.833,804.167 176.833,804.167 175.5,803.5 Z"/></g>
<g><path style="opacity:0.008" fill="#000000" d="M 221.5,803.5 C 222.833,804.167 222.833,804.167 221.5,803.5 Z"/></g>
<g><path style="opacity:0.008" fill="#000000" d="M 219.5,805.5 C 220.833,806.167 220.833,806.167 219.5,805.5 Z"/></g>
</svg>
